<?xml version="1.0" encoding="utf-8"?>
<!-- Generator: Adobe Illustrator 19.0.0, SVG Export Plug-In . SVG Version: 6.00 Build 0)  -->
<svg version="1.1" id="Layer_1" xmlns="http://www.w3.org/2000/svg" xmlns:xlink="http://www.w3.org/1999/xlink" x="0px" y="0px"
	 viewBox="-540 266.6 128.7 122.4" style="enable-background:new -540 266.6 128.7 122.4;" xml:space="preserve">
<style type="text/css">
	.st0{opacity:1;}
	.st1{opacity:1;fill:#fff;enable-background:new    ;}
</style>
<g id="XMLID_25_" class="st0">
	<path id="XMLID_29_" class="st1" d="M-489.5,314.7v7.4h23v-7.6C-466.6,302.9-489.9,302.9-489.5,314.7z"/>
	<path id="XMLID_26_" class="st1" d="M-447.5,273.6c-39.7-14.1-65.8-4.5-78.3,8.8c-23.9,25.5-10.5,52.4-10.5,52.4s15,54.4,60,52.8
		C-420.3,385.7-379.7,297.6-447.5,273.6z M-445.4,338.8h-44.1v4c0,11.6,20.1,12.9,25.7,3.6l14.7,10.4c-6.5,12-19.4,15.8-29.3,15.8
		c-16.8,0-33.8-9.9-33.8-29.8v-27.3c0-20.2,17-29.6,33.8-29.6c16.3,0,33,9.4,33,29.6V338.8L-445.4,338.8z"/>
</g>
</svg>
